<svg xmlns="http://www.w3.org/2000/svg" height="24px" viewBox="0 -960 960 960" width="24px" fill="currentColor"><path d="M538.5-138.5Q480-197 480-280t58.5-141.5Q597-480 680-480t141.5 58.5Q880-363 880-280t-58.5 141.5Q763-80 680-80t-141.5-58.5ZM747-185l28-28-75-75v-112h-40v128l87 87Zm-547 65q-33 0-56.5-23.5T120-200v-560q0-33 23.5-56.5T200-840h167q11-35 43-57.5t70-22.5q40 0 71.5 22.5T594-840h166q33 0 56.5 23.5T840-760v250q-18-13-38-22t-42-16v-212h-80v120H280v-120h-80v560h212q7 22 16 42t22 38H200Zm308.5-651.5Q520-783 520-800t-11.5-28.5Q497-840 480-840t-28.5 11.5Q440-817 440-800t11.5 28.5Q463-760 480-760t28.5-11.5Z"/></svg>